<svg width="140" height="140" viewBox="0 0 140 140" fill="none" xmlns="http://www.w3.org/2000/svg">
<path fill-rule="evenodd" clip-rule="evenodd" d="M71.981 34.7284C71.3545 32.5997 70.8765 30.4231 70.5471 28.1986V21.7086C83.0867 21.848 94.479 26.7665 102.988 34.7284H71.981ZM67.9531 34.7284C68.6181 32.5394 69.121 30.2997 69.4618 28.0093V21.7085C56.9179 21.8452 45.5215 26.7642 37.0098 34.7284H67.9531ZM36.2651 35.8137H67.6088C67.1537 37.1889 66.6337 38.5438 66.0486 39.8784C63.5406 45.7843 60.1181 50.9347 55.7809 55.3295L36.2651 35.8137ZM34.7274 34.7284H17.3753V35.8137H34.3667C25.9685 44.5648 20.7628 56.4033 20.6221 69.4567H0V70.542H20.6221C20.7624 83.5959 25.968 95.4348 34.3663 104.186H17.3754V105.271H34.7274V122.637H35.8127V105.633C44.5652 114.032 56.406 119.238 69.4618 119.377V140H70.5471V119.377C83.6001 119.235 95.438 114.028 104.188 105.63V122.637H105.274V105.271H122.647V104.186H105.632C114.03 95.4348 119.236 83.5959 119.376 70.542H140.01V69.4567H119.376C119.235 56.4033 114.03 44.5648 105.631 35.8137H122.647V34.7284H105.274V17.3652H104.188V34.3706C95.438 25.9717 83.6001 20.7652 70.5471 20.6233V0H69.4618V20.6231C56.406 20.7623 44.5652 25.9682 35.8127 34.3677V17.3652H34.7274V34.7284ZM70.5471 118.292C83.0869 118.152 94.4793 113.234 102.989 105.271H71.9811C71.3545 107.4 70.8765 109.577 70.5471 111.802V118.292ZM69.4618 111.991C69.121 109.7 68.6181 107.461 67.953 105.271H37.0094C45.5211 113.236 56.9177 118.155 69.4618 118.292V111.991ZM21.7074 69.4567H28.1659C30.4015 69.1271 32.5886 68.6476 34.7274 68.0181V37.0108C26.7645 45.521 21.8457 56.9152 21.7074 69.4567ZM28.0395 70.542H21.7074C21.8453 83.0842 26.7642 94.4789 34.7274 102.989V72.046C32.5484 71.384 30.319 70.8827 28.0395 70.542ZM118.291 69.4567C118.152 56.9168 113.235 45.524 105.274 37.014V68.019C107.411 68.6481 109.598 69.1273 111.832 69.4567H118.291ZM111.958 70.542C109.68 70.8825 107.452 71.3836 105.274 72.0451V102.986C113.235 94.4759 118.153 83.0826 118.291 70.542H111.958ZM104.188 103.737V72.3894C102.812 72.8447 101.456 73.3651 100.121 73.9505C94.2148 76.4585 89.0644 79.8811 84.6696 84.2182L104.188 103.737ZM104.188 67.6855V35.8907L104.111 35.8137H72.3146C72.7554 37.1889 73.2592 38.5438 73.826 39.8784C76.4595 45.8863 79.9984 51.1123 84.4426 55.5565C88.8868 60.0007 94.1128 63.5396 100.121 66.1732C101.456 66.7403 102.812 67.2444 104.188 67.6855ZM35.8127 104.113V72.3904C37.1879 72.8455 38.5428 73.3655 39.8773 73.9505C45.8852 76.5018 51.1112 79.9995 55.5554 84.4437C59.9996 88.8879 63.4973 94.1139 66.0486 100.122C66.6336 101.456 67.1536 102.811 67.6087 104.186H35.8863L35.8127 104.113ZM35.8127 67.6845V36.8961L55.0101 56.0935C50.6855 60.2867 45.6412 63.6465 39.8773 66.1732C38.5428 66.7399 37.1879 67.2437 35.8127 67.6845ZM72.3147 104.186H103.103L83.9056 84.9891C79.7125 89.3137 76.3526 94.3579 73.826 100.122C73.2593 101.456 72.7555 102.811 72.3147 104.186ZM58.625 58.6261C53.8324 63.4187 48.2185 67.2285 41.8213 70.0604C48.2192 72.8121 53.8334 76.5824 58.625 81.3741C63.4167 86.1658 67.187 91.7799 69.9387 98.1778C72.7706 91.7806 76.5804 86.1667 81.373 81.3741C86.1647 76.5824 91.7788 72.8121 98.1767 70.0604C91.7795 67.2285 86.1656 63.4187 81.373 58.6261C76.5804 53.8335 72.7706 48.2196 69.9387 41.8224C67.187 48.2203 63.4167 53.8345 58.625 58.6261Z" fill="url(#paint0_linear_30627_9825)"/>
<defs>
<linearGradient id="paint0_linear_30627_9825" x1="34.1885" y1="105.814" x2="105.274" y2="35.2661" gradientUnits="userSpaceOnUse">
<stop stop-color="#446EFF"/>
<stop offset="0.366609" stop-color="#2E96FF"/>
<stop offset="0.832213" stop-color="#B1C5FF"/>
</linearGradient>
</defs>
</svg>
