<?xml version="1.0" encoding="UTF-8"?>
<svg version="1.1" xmlns="http://www.w3.org/2000/svg" width="497" height="497">
<path d="M0 0 C1.69019508 -0.00744736 1.69019508 -0.00744736 3.41453552 -0.01504517 C7.11783477 -0.02956748 10.82109109 -0.03645434 14.52441406 -0.04199219 C16.43878139 -0.04623325 16.43878139 -0.04623325 18.39182281 -0.05056 C24.45948418 -0.06398093 30.52712675 -0.07388451 36.59480166 -0.07776189 C43.52958982 -0.08222107 50.46417876 -0.09968043 57.39890647 -0.12876248 C63.46010402 -0.15327167 69.52122154 -0.16072012 75.58246613 -0.16243744 C78.13209361 -0.16543088 80.68172095 -0.17334474 83.23131561 -0.18662262 C122.82045972 -0.37798081 157.57027553 6.92451885 188.29003906 33.16113281 C189.09828125 33.8353125 189.90652344 34.50949219 190.73925781 35.20410156 C215.57833643 56.61172191 230.42754567 87.04690407 235.29003906 119.16113281 C235.48726563 120.33095703 235.48726563 120.33095703 235.68847656 121.52441406 C241.10544733 159.22360251 227.17735557 195.24516567 205.29003906 225.16113281 C202.54109352 228.75747468 199.54962189 232.01876102 196.29003906 235.16113281 C195.81824219 235.61665527 195.34644531 236.07217773 194.86035156 236.54150391 C185.33258164 245.673291 185.33258164 245.673291 182.49459839 247.00128174 C180.20850327 248.15124239 178.88770438 249.1429739 177.29003906 251.16113281 C176.25111936 255.89399203 176.40802261 260.61874115 176.49316406 265.43847656 C176.4913951 266.85186098 176.48611128 268.26524497 176.47747803 269.67860413 C176.46224013 273.39381019 176.48603254 277.10765458 176.52069092 280.82269287 C176.57119957 286.7640721 176.56947825 292.70538938 176.55428314 298.64691353 C176.55564084 300.71559866 176.57794141 302.78327281 176.60284424 304.85179138 C176.60564392 306.11652786 176.6084436 307.38126434 176.61132812 308.68432617 C176.62634369 310.34714882 176.62634369 310.34714882 176.6416626 312.04356384 C176.07798398 317.04125826 174.34951954 320.22484774 170.60253906 323.53613281 C166.74854449 325.42677166 163.45882448 326.15753847 159.29003906 325.16113281 C152.82384676 321.88669272 147.01698227 317.57708776 141.10253906 313.41113281 C133.22659394 307.89491636 125.32738437 302.44000982 117.29003906 297.16113281 C117.31098633 297.90459961 117.33193359 298.64806641 117.35351562 299.4140625 C117.73710541 315.17037711 117.51834983 329.9215961 113.29003906 345.16113281 C113.08636719 345.91507324 112.88269531 346.66901367 112.67285156 347.44580078 C103.81052029 379.29138467 82.31871516 407.65530548 54.29003906 425.16113281 C53.72220703 425.51997559 53.154375 425.87881836 52.56933594 426.24853516 C40.90740849 433.52244875 28.68260284 438.47315004 15.41503906 441.91113281 C14.66206543 442.10989014 13.9090918 442.30864746 13.13330078 442.51342773 C-1.39238662 446.05601907 -16.05081398 446.42259761 -30.91939735 446.31326675 C-34.02844356 446.2934337 -37.13703595 446.29164197 -40.24613953 446.2951355 C-49.07194466 446.30472202 -57.89728717 446.30507535 -66.72290039 446.24023438 C-72.15694617 446.20161305 -77.58980969 446.20219526 -83.02391624 446.22780991 C-85.07664602 446.23020802 -87.12944882 446.21832586 -89.18200111 446.19122696 C-101.89812435 446.02998168 -109.80803238 446.56035847 -119.70996094 455.16113281 C-121.54187859 456.45467675 -123.38552493 457.73191835 -125.24511719 458.98535156 C-127.08827157 460.27210063 -128.93070345 461.55988513 -130.77246094 462.84863281 C-138.78218942 468.4388781 -146.81676487 473.98902783 -154.89404297 479.48120117 C-158.80230061 482.1456941 -162.68212326 484.8424118 -166.52636719 487.59863281 C-167.30318848 488.15454102 -168.08000977 488.71044922 -168.88037109 489.28320312 C-170.35146084 490.33954885 -171.81882904 491.40110404 -173.28173828 492.46875 C-173.9373877 492.93958008 -174.59303711 493.41041016 -175.26855469 493.89550781 C-175.83888428 494.31026367 -176.40921387 494.72501953 -176.99682617 495.15234375 C-181.136543 497.59003934 -186.02243207 497.79080087 -190.70996094 497.16113281 C-195.5566014 495.39172439 -198.48798155 492.81736163 -200.70996094 488.16113281 C-201.04139709 485.108078 -201.04139709 485.108078 -200.98364258 481.66186523 C-200.97115982 480.36669479 -200.95867706 479.07152435 -200.94581604 477.73710632 C-200.9329059 477.04970556 -200.91999577 476.3623048 -200.90669441 475.65407372 C-200.8696254 473.48786285 -200.85732167 471.32283642 -200.85264587 469.15632629 C-200.83793733 462.99962326 -200.80296258 456.84404532 -200.69311523 450.68823242 C-200.62756156 446.91467278 -200.61121677 443.14353408 -200.62582207 439.3694706 C-200.62205205 437.93850545 -200.60015262 436.50746071 -200.55916023 435.07707787 C-200.21016315 426.70312441 -200.21016315 426.70312441 -203.91061401 419.53489685 C-206.42318001 417.51280268 -208.94660391 415.81644367 -211.70996094 414.16113281 C-239.78223868 390.57262165 -256.3538596 358.61324461 -260.53125 322.32104492 C-263.17865471 290.32433797 -256.67837794 256.58283633 -237.70996094 230.16113281 C-236.67162109 228.68 -236.67162109 228.68 -235.61230469 227.16894531 C-213.72123442 197.2742951 -182.40128215 177.20326273 -145.70996094 171.16113281 C-143.04611016 170.79260007 -140.38086712 170.47535707 -137.70996094 170.16113281 C-137.37996094 169.83113281 -137.04996094 169.50113281 -136.70996094 169.16113281 C-137.02124337 167.62213504 -137.34045509 166.08448532 -137.68994141 164.55371094 C-145.12728702 130.74037869 -137.9670402 94.11194834 -119.83496094 64.84863281 C-108.21750755 46.68438738 -93.17489197 31.31693664 -74.70996094 20.16113281 C-74.04270996 19.75668945 -73.37545898 19.35224609 -72.68798828 18.93554688 C-50.52225231 5.78014256 -25.62563794 0.02748536 0 0 Z " fill="#32C7A0" transform="translate(260.7099609375,-0.1611328125)"/>
<path d="M0 0 C2.1232913 4.05189687 3.75915782 8.0332523 5.1875 12.375 C11.62186452 30.5168621 21.52816289 48.06047505 36 61 C41 66 41 66 43.01171875 68.046875 C43.72972656 68.77390625 44.44773438 69.5009375 45.1875 70.25 C45.86167969 70.93578125 46.53585938 71.6215625 47.23046875 72.328125 C48.90798995 74.07449111 48.90798995 74.07449111 51 75 C51 75.66 51 76.32 51 77 C52.27230469 77.36738281 52.27230469 77.36738281 53.5703125 77.7421875 C57.32465513 79.11906487 60.5154749 81.00276997 63.875 83.125 C90.28135717 99.26403254 120.71124363 109.11629695 151.89111328 109.15771484 C153.16588028 109.16533592 153.16588028 109.16533592 154.46640015 109.17311096 C156.2974866 109.1837472 158.12858551 109.19239335 159.95969009 109.19923019 C162.86047222 109.21110186 165.76111095 109.23057183 168.66183472 109.25234985 C176.90422807 109.31371411 185.1466015 109.36807789 193.38916016 109.40136719 C198.44299145 109.42232081 203.49655177 109.45761746 208.55022812 109.50212479 C210.47108651 109.51626555 212.39199273 109.52500287 214.31290054 109.52817917 C216.9981145 109.53309281 219.68260842 109.5562585 222.36767578 109.58349609 C223.15640076 109.58048996 223.94512573 109.57748383 224.75775146 109.5743866 C231.12406172 109.67019219 235.62525915 111.6756954 240.61328125 115.6640625 C241.22107422 116.14617187 241.82886719 116.62828125 242.45507812 117.125 C243.06802734 117.62 243.68097656 118.115 244.3125 118.625 C244.94478516 119.12773437 245.57707031 119.63046875 246.22851562 120.1484375 C250.76971726 123.76971726 250.76971726 123.76971726 252 125 C253.16738365 141.81837545 252.57805155 158.73308072 248 175 C247.79632813 175.75104004 247.59265625 176.50208008 247.3828125 177.27587891 C238.52300437 209.12606878 217.03232716 237.49189233 189 255 C188.43216797 255.35884277 187.86433594 255.71768555 187.27929688 256.08740234 C175.61736943 263.36131594 163.39256378 268.31201723 150.125 271.75 C149.37202637 271.94875732 148.61905273 272.14751465 147.84326172 272.35229492 C133.31757431 275.89488626 118.65914696 276.2614648 103.79056358 276.15213394 C100.68151738 276.13230088 97.57292499 276.13050916 94.46382141 276.13400269 C85.63801628 276.14358921 76.81267376 276.14394254 67.98706055 276.07910156 C62.55301477 276.04048023 57.12015125 276.04106244 51.68604469 276.06667709 C49.63331492 276.06907521 47.58051212 276.05719305 45.52795982 276.03009415 C32.81183658 275.86884887 24.90192856 276.39922566 15 285 C13.16808235 286.29354394 11.32443601 287.57078554 9.46484375 288.82421875 C7.62168937 290.11096781 5.77925748 291.39875232 3.9375 292.6875 C-4.07222848 298.27774528 -12.10680393 303.82789502 -20.18408203 309.32006836 C-24.09233967 311.98456129 -27.97216232 314.68127899 -31.81640625 317.4375 C-32.59322754 317.9934082 -33.37004883 318.54931641 -34.17041016 319.12207031 C-35.6414999 320.17841604 -37.1088681 321.23997123 -38.57177734 322.30761719 C-39.22742676 322.77844727 -39.88307617 323.24927734 -40.55859375 323.734375 C-41.12892334 324.14913086 -41.69925293 324.56388672 -42.28686523 324.99121094 C-46.42658207 327.42890653 -51.31247114 327.62966806 -56 327 C-60.84664046 325.23059158 -63.77802062 322.65622882 -66 318 C-66.33143616 314.94694519 -66.33143616 314.94694519 -66.27368164 311.50073242 C-66.26119888 310.20556198 -66.24871613 308.91039154 -66.2358551 307.57597351 C-66.22294497 306.88857275 -66.21003483 306.20117199 -66.19673347 305.4929409 C-66.15966446 303.32673004 -66.14736073 301.1617036 -66.14268494 298.99519348 C-66.12797639 292.83849045 -66.09300164 286.68291251 -65.9831543 280.52709961 C-65.91760062 276.75353997 -65.90125583 272.98240127 -65.91586113 269.20833778 C-65.91209111 267.77737264 -65.89019168 266.3463279 -65.8491993 264.91594505 C-65.50020221 256.5419916 -65.50020221 256.5419916 -69.20065308 249.37376404 C-71.71321907 247.35166986 -74.23664297 245.65531086 -77 244 C-105.07227774 220.41148884 -121.64389866 188.4521118 -125.82128906 152.15991211 C-128.46869377 120.16320516 -121.968417 86.42170352 -103 60 C-102.30777344 59.01257813 -101.61554688 58.02515625 -100.90234375 57.0078125 C-78.32724008 26.17903988 -46.23471608 6.50031889 -8.47265625 0.60546875 C-5.6281391 0.21968433 -2.8720683 0 0 0 Z " fill="#217F6C" transform="translate(126,170)"/>
<path d="M0 0 C0.99450668 -0.00315216 1.98901337 -0.00630432 3.01365662 -0.009552 C4.09591019 -0.00752777 5.17816376 -0.00550354 6.29321289 -0.00341797 C7.94867882 -0.00485306 7.94867882 -0.00485306 9.6375885 -0.00631714 C11.97714291 -0.00699919 14.3166992 -0.00514317 16.65625 -0.00097656 C20.24686928 0.00436626 23.83736318 -0.00091813 27.42797852 -0.00732422 C29.69555692 -0.00666334 31.96313524 -0.00538198 34.23071289 -0.00341797 C35.31094223 -0.0054422 36.39117157 -0.00746643 37.50413513 -0.009552 C38.50179398 -0.00639984 39.49945282 -0.00324768 40.52734375 0 C41.40813095 0.00079559 42.28891815 0.00159119 43.19639587 0.00241089 C45.32836914 0.12939453 45.32836914 0.12939453 47.32836914 1.12939453 C48.0259537 3.61206446 48.60900908 6.04781942 49.14086914 8.56689453 C50.47484666 14.56131072 51.94031648 20.47877296 53.64086914 26.37939453 C55.93461324 34.40885293 57.89539402 42.50632147 59.82836914 50.62939453 C61.88894791 59.28691734 64.02706821 67.89287681 66.48461914 76.44580078 C68.58833883 83.85694402 70.32093478 91.35298479 72.0871582 98.8503418 C73.80962788 106.11051799 75.68451526 113.30812604 77.76782227 120.47314453 C78.88299914 124.34059293 79.75209228 128.14502871 80.32836914 132.12939453 C73.41174437 134.72054799 66.51513427 134.46068118 59.20336914 134.44189453 C57.31038086 134.46606445 57.31038086 134.46606445 55.37915039 134.49072266 C53.55577148 134.49168945 53.55577148 134.49168945 51.69555664 134.49267578 C50.04209229 134.49714722 50.04209229 134.49714722 48.35522461 134.50170898 C44.95020309 134.0828787 43.07764615 133.14505857 40.32836914 131.12939453 C35.66704763 123.81722564 34.29578556 113.42064943 32.32836914 105.12939453 C17.47836914 104.63439453 17.47836914 104.63439453 2.32836914 104.12939453 C1.13821352 110.39445434 1.13821352 110.39445434 -0.03417969 116.6628418 C-1.04084627 121.82599962 -1.97291564 126.58080077 -4.67163086 131.12939453 C-10.38921099 134.78954035 -16.09966443 134.55283879 -22.73413086 134.44189453 C-23.70157227 134.44511719 -24.66901367 134.44833984 -25.66577148 134.45166016 C-30.71947422 134.41361038 -34.94345915 134.13069487 -39.67163086 132.12939453 C-38.86631979 126.74000505 -37.63119725 121.48548611 -36.35913086 116.19189453 C-36.13547852 115.25748535 -35.91182617 114.32307617 -35.68139648 113.36035156 C-33.80601379 105.57965057 -31.7666737 97.85386546 -29.67163086 90.12939453 C-28.87450794 87.13082606 -28.08510598 84.13024718 -27.29663086 81.12939453 C-27.0883667 80.33742676 -26.88010254 79.54545898 -26.66552734 78.72949219 C-23.98640688 68.53324756 -21.32986879 58.33109851 -18.67163086 48.12939453 C-17.15629213 42.31387404 -15.64042375 36.49849744 -14.12084961 30.68408203 C-13.15911035 27.00331972 -12.20402117 23.3209231 -11.25366211 19.63720703 C-10.80969956 17.92625711 -10.36569141 16.21531902 -9.92163086 14.50439453 C-9.62373657 13.34085449 -9.62373657 13.34085449 -9.31982422 12.15380859 C-6.15537211 0.00556502 -6.15537211 0.00556502 0 0 Z " fill="#FDFEFE" transform="translate(242.671630859375,71.87060546875)"/>
<path d="M0 0 C1.80535721 0.00666183 1.80535721 0.00666183 3.64718628 0.01345825 C4.31072113 0.0131662 4.97425598 0.01287415 5.65789795 0.01257324 C7.85481772 0.01396847 10.05139985 0.02953836 12.2482605 0.04519653 C13.76997696 0.04892599 15.29169581 0.05177328 16.81341553 0.05377197 C20.82150891 0.0614138 24.8294577 0.0810669 28.8374939 0.10317993 C32.92621911 0.12362659 37.01496766 0.13277116 41.10372925 0.14285278 C49.12853524 0.16431236 57.15322364 0.19845483 65.177948 0.24050903 C67.51432215 5.4012587 68.6698997 9.37380323 68.552948 15.11550903 C68.54642212 15.81297241 68.53989624 16.51043579 68.53317261 17.22903442 C68.40003408 22.36770395 68.0646819 29.35377513 64.177948 33.24050903 C59.557948 33.24050903 54.937948 33.24050903 50.177948 33.24050903 C50.177948 55.68050903 50.177948 78.12050903 50.177948 101.24050903 C55.127948 101.24050903 60.077948 101.24050903 65.177948 101.24050903 C69.44067945 105.50324049 69.34955499 111.94835992 69.490448 117.67800903 C69.41709073 122.9291668 69.17409079 130.24436624 65.177948 134.24050903 C63.06113482 134.33472644 60.94114041 134.35793664 58.82223511 134.35403442 C58.15884628 134.35418045 57.49545746 134.35432648 56.81196594 134.35447693 C54.60970844 134.35377784 52.40753455 134.34598568 50.20529175 134.33816528 C48.68214464 134.33630109 47.15899692 134.33487719 45.635849 134.33387756 C41.61957149 134.3300525 37.60332992 134.32022231 33.58706665 134.30917358 C29.49171434 134.29895922 25.39635624 134.29437989 21.30099487 134.28933716 C13.25996272 134.27860003 5.21895983 134.26152375 -2.822052 134.24050903 C-6.20043948 125.75595896 -6.20043948 125.75595896 -6.2204895 121.51394653 C-6.22435669 120.70957153 -6.22822388 119.90519653 -6.23220825 119.07644653 C-6.22060669 118.26433716 -6.20900513 117.45222778 -6.197052 116.61550903 C-6.20865356 115.79566528 -6.22025513 114.97582153 -6.23220825 114.13113403 C-6.22834106 113.32933716 -6.22447388 112.52754028 -6.2204895 111.70144653 C-6.21710571 110.98778931 -6.21372192 110.27413208 -6.2102356 109.53884888 C-5.822052 107.24050903 -5.822052 107.24050903 -2.822052 101.24050903 C2.127948 101.24050903 7.077948 101.24050903 12.177948 101.24050903 C12.177948 78.80050903 12.177948 56.36050903 12.177948 33.24050903 C7.227948 33.24050903 2.277948 33.24050903 -2.822052 33.24050903 C-7.69984012 25.11086217 -7.91915986 16.18508869 -6.44314575 6.84207153 C-5.3453389 2.74474519 -4.49236887 0.38286158 0 0 Z " fill="#FEFEFE" transform="translate(335.8220520019531,71.75949096679688)"/>
<path d="M0 0 C2.79947086 2.79947086 3.1176154 5.99710828 3.9453125 9.74609375 C4.12005096 10.51301041 4.29478943 11.27992706 4.474823 12.07008362 C4.84295614 13.69250735 5.20754002 15.31573988 5.56884766 16.93969727 C6.12241677 19.42589814 6.68719599 21.9093434 7.25390625 24.39257812 C7.61003897 25.96860011 7.96552925 27.54476743 8.3203125 29.12109375 C8.57338669 30.23683022 8.57338669 30.23683022 8.83157349 31.37510681 C9.48276944 34.31542954 10 36.978064 10 40 C3.4 40 -3.2 40 -10 40 C-8.68237454 32.27795466 -7.01540754 24.75525556 -5 17.1875 C-4.60941406 15.69186523 -4.60941406 15.69186523 -4.2109375 14.16601562 C-2.95183896 9.38716434 -1.64685604 4.66345293 0 0 Z " fill="#39C9A3" transform="translate(260,112)"/>
</svg>
